<svg width="48" height="48" viewBox="0 0 48 48" fill="none" xmlns="http://www.w3.org/2000/svg">
<g clip-path="url(#clip0)">
<rect width="48" height="48" rx="24" fill="#006FCF"/>
<path fill-rule="evenodd" clip-rule="evenodd" d="M7.5 25.1854L13.6247 11.3914H19.5587L20.5347 13.5894V11.3914H28.0653L29.0688 14.0061L30.0723 11.3914H37.5871V22.8146H39.4745L33.0584 29.7256L39.5 36.6086H30.7182L28.6932 34.4275L26.6682 36.6086H12.4205V25.1854H7.5Z" fill="white"/>
<path fill-rule="evenodd" clip-rule="evenodd" d="M13.4602 23.1569H10.6202L14.9435 13.4199H17.4158L17.4158 13.4199H18.24L22.5633 23.1569H19.7233L18.9405 21.2298H14.243L13.4602 23.1569ZM15.0929 19.1379H18.0906L16.5918 15.4484L15.0929 19.1379ZM24.9976 23.1569V15.3927L27.9263 23.1537H27.9389H30.1989H30.2115L33.1244 15.4346V23.1569L35.5587 23.1569V13.4199H33.1529L33.1244 13.4199L31.4667 13.4199L29.0689 19.6675L26.6711 13.4199H24.9976H24.9849L22.5634 13.4199L22.5634 23.1569L24.9976 23.1569ZM25.7107 24.8431H22.5633L27.1013 29.7312L22.5634 34.5801H25.7837L28.6933 31.446L31.603 34.5801H34.8233L30.2853 29.7312L34.8234 24.8431H31.676L28.6933 28.0301L25.7107 24.8431ZM14.4491 26.9605H14.4491L14.4491 28.653H14.4491L14.4491 30.7703H14.4491L14.4491 32.4566H14.4491L14.4491 34.5739H14.4491V34.5801H16.8834V34.5739L22.5633 34.5739V32.4566H16.8834V30.7703H22.4365V28.653H16.8834V26.9605L22.5633 26.9605V24.8432L16.8834 24.8432V24.8431H14.4491V24.8432H14.4491L14.4491 26.9605Z" fill="#006FCF"/>
</g>
<defs>
<clipPath id="clip0">
<rect width="48" height="48" fill="white"/>
</clipPath>
</defs>
</svg>
