<svg width="48" height="48" viewBox="0 0 48 48" fill="none" xmlns="http://www.w3.org/2000/svg">
<rect width="48" height="48" rx="24" fill="#F26A21"/>
<path fill-rule="evenodd" clip-rule="evenodd" d="M24.0001 15.2895C22.1064 13.7893 19.7132 12.8907 17.1091 12.8907C10.9738 12.8907 6 17.8646 6 24C6 30.1354 10.9738 35.1094 17.1091 35.1094C19.7132 35.1094 22.1064 34.211 24.0001 32.7105C25.8939 34.2106 28.2869 35.1089 30.8907 35.1089C37.0261 35.1089 42 30.1354 42 24C42 17.8646 37.0261 12.8908 30.8907 12.8908C28.2869 12.8908 25.8939 13.7889 24.0001 15.2895ZM39.365 21.5712V23.1069C39.2635 22.9772 39.1381 22.8734 38.9882 22.7954C38.8381 22.7175 38.6589 22.6784 38.4502 22.6784C38.2457 22.6784 38.0553 22.7164 37.8791 22.7923C37.7026 22.8684 37.5489 22.9741 37.4172 23.1099C37.2853 23.2456 37.182 23.4072 37.1073 23.5946C37.0321 23.7819 36.9947 23.9871 36.9947 24.2099C36.9947 24.4328 37.0321 24.6378 37.1073 24.8252C37.182 25.0126 37.2853 25.1741 37.4172 25.3099C37.5489 25.4457 37.7026 25.5513 37.8791 25.6275C38.0553 25.7033 38.2457 25.7413 38.4502 25.7413C38.6589 25.7413 38.8381 25.7028 38.9882 25.6258C39.138 25.5489 39.2635 25.4456 39.365 25.3159V25.6653H40V21.5712H39.365ZM39.3405 24.5806C39.2981 24.6941 39.2382 24.7923 39.1612 24.8754C39.0844 24.9584 38.9922 25.0238 38.8847 25.0714C38.7774 25.119 38.6578 25.1428 38.5261 25.1428C38.3885 25.1428 38.2653 25.1181 38.157 25.0683C38.0486 25.0188 37.9571 24.9518 37.8819 24.8677C37.8072 24.7837 37.7493 24.685 37.709 24.5715C37.6684 24.458 37.6481 24.3376 37.6481 24.2099C37.6481 24.0824 37.6684 23.9618 37.709 23.8483C37.7494 23.7348 37.8072 23.6362 37.8819 23.5521C37.9571 23.4681 38.0486 23.4013 38.157 23.3516C38.2653 23.302 38.3885 23.2771 38.5261 23.2771C38.6578 23.2771 38.7775 23.3009 38.8847 23.3485C38.9922 23.3963 39.0843 23.4615 39.1612 23.5445C39.2382 23.6276 39.2981 23.7259 39.3405 23.8393C39.3832 23.9527 39.4044 24.0763 39.4044 24.21C39.4044 24.3435 39.3832 24.4671 39.3405 24.5806ZM21.5346 25.1427C21.6337 25.1427 21.7344 25.1235 21.8368 25.085C21.9049 25.0594 21.9694 25.0298 22.0308 24.9971L22.248 25.5288C22.1638 25.5759 22.0737 25.6187 21.9765 25.6563C21.8297 25.7131 21.6642 25.7414 21.4799 25.7414C21.1495 25.7414 20.8928 25.6498 20.7095 25.4663C20.5262 25.2832 20.4344 24.998 20.4344 24.6111V23.3317H19.8541V22.7544H20.4344V21.8732H21.0725V22.7544H22.0926V23.3317H21.0725V24.5988C21.0725 24.6961 21.0847 24.7791 21.1089 24.8481C21.1334 24.9169 21.1663 24.9731 21.2078 25.0166C21.2493 25.0602 21.298 25.0922 21.3536 25.1123C21.4093 25.1326 21.4695 25.1427 21.5346 25.1427ZM11.9393 22.7635C12.0795 22.8202 12.2005 22.8998 12.3025 23.002C12.4044 23.1043 12.4833 23.2265 12.5391 23.3682C12.5951 23.51 12.6229 23.666 12.6229 23.8362V25.6654H12.0054V24.0458C12.0054 23.8007 11.948 23.6122 11.8333 23.4806C11.7186 23.349 11.5573 23.2831 11.3496 23.2831C11.2495 23.2831 11.1554 23.2998 11.0673 23.3332C10.9791 23.3667 10.9022 23.4158 10.8363 23.4806C10.7707 23.5455 10.7183 23.626 10.6791 23.7222C10.6398 23.8185 10.6203 23.9283 10.6203 24.052V25.6654H10.0026V24.0458C10.0026 23.8007 9.94539 23.6122 9.83061 23.4806C9.71598 23.349 9.55473 23.2831 9.34692 23.2831C9.24697 23.2831 9.15284 23.2998 9.06452 23.3332C8.97636 23.3667 8.89937 23.4158 8.83375 23.4806C8.76794 23.5455 8.71556 23.626 8.67637 23.7222C8.63717 23.8185 8.61757 23.9283 8.61757 24.052V25.6654H8V22.7544H8.61161V23.11C8.6685 23.0249 8.73165 22.9545 8.80132 22.8988C8.87095 22.8431 8.94398 22.799 9.02052 22.7666C9.0969 22.7342 9.17384 22.7115 9.25128 22.6982C9.32877 22.6851 9.40371 22.6784 9.47634 22.6784C9.69197 22.6784 9.88369 22.7245 10.0512 22.8167C10.2189 22.9089 10.3516 23.0361 10.4498 23.198C10.5104 23.0947 10.5821 23.0092 10.6644 22.9412C10.7468 22.8735 10.8336 22.8202 10.9248 22.7818C11.0159 22.7433 11.109 22.7165 11.204 22.7013C11.2991 22.686 11.3908 22.6784 11.479 22.6784C11.6456 22.6784 11.7991 22.7068 11.9393 22.7635ZM15.1825 22.7954C15.3325 22.8734 15.458 22.9772 15.5593 23.1069V22.7543H16.1944V25.6653H15.5593V25.3159C15.458 25.4456 15.3324 25.5489 15.1825 25.6258C15.0325 25.7028 14.8533 25.7413 14.6447 25.7413C14.44 25.7413 14.2497 25.7034 14.0734 25.6275C13.8972 25.5513 13.7432 25.4457 13.6116 25.3099C13.4798 25.1741 13.3765 25.0126 13.3016 24.8252C13.2267 24.6378 13.1892 24.4328 13.1892 24.2099C13.1892 23.9871 13.2267 23.7819 13.3016 23.5946C13.3765 23.4072 13.4799 23.2456 13.6116 23.1099C13.7433 22.9741 13.8972 22.8684 14.0734 22.7923C14.2497 22.7164 14.44 22.6784 14.6447 22.6784C14.8533 22.6784 15.0325 22.7175 15.1825 22.7954ZM15.3557 24.8754C15.4327 24.7923 15.4925 24.6941 15.5351 24.5806C15.5776 24.4671 15.5988 24.3436 15.5988 24.21C15.5988 24.0763 15.5776 23.9527 15.5351 23.8393C15.4925 23.7259 15.4327 23.6276 15.3557 23.5445C15.2787 23.4615 15.1867 23.3963 15.0792 23.3485C14.9719 23.3009 14.8523 23.2771 14.7207 23.2771C14.5829 23.2771 14.4598 23.302 14.3515 23.3516C14.2431 23.4013 14.1514 23.4681 14.0766 23.5522C14.0015 23.6362 13.9439 23.7349 13.9033 23.8483C13.8628 23.9618 13.8425 24.0824 13.8425 24.2099C13.8425 24.3376 13.8627 24.458 13.9033 24.5715C13.9439 24.685 14.0015 24.7837 14.0766 24.8677C14.1514 24.9519 14.2431 25.0188 14.3515 25.0683C14.4598 25.1181 14.5829 25.1428 14.7207 25.1428C14.8523 25.1428 14.9719 25.119 15.0792 25.0714C15.1866 25.0238 15.2787 24.9584 15.3557 24.8754ZM19.1136 24.2053C18.9353 24.0666 18.6873 23.9739 18.3691 23.9273L18.0684 23.8817C18.0015 23.8716 17.9388 23.86 17.88 23.8467C17.8212 23.8336 17.7707 23.8158 17.7281 23.7936C17.6854 23.7713 17.6515 23.743 17.6262 23.7085C17.6008 23.674 17.5881 23.6315 17.5881 23.5809C17.5881 23.4776 17.6363 23.394 17.7327 23.3301C17.8289 23.2664 17.964 23.2345 18.1383 23.2345C18.2294 23.2345 18.3191 23.2425 18.4071 23.2588C18.4953 23.275 18.579 23.2952 18.6578 23.3195C18.7369 23.3438 18.8088 23.3707 18.8736 23.4001C18.9385 23.4294 18.9931 23.4574 19.0376 23.4836L19.3113 22.9883C19.1594 22.8911 18.9821 22.8156 18.7794 22.762C18.5769 22.7083 18.3611 22.6814 18.1321 22.6814C17.9458 22.6814 17.7786 22.7032 17.6308 22.7468C17.4831 22.7903 17.3569 22.8521 17.2524 22.9321C17.1482 23.0122 17.0682 23.1099 17.0124 23.2253C16.9569 23.3409 16.929 23.4704 16.929 23.6143C16.929 23.8493 17.0124 24.0392 17.1796 24.1841C17.3468 24.329 17.5923 24.4235 17.9165 24.4683L18.2204 24.5077C18.3946 24.5319 18.5223 24.5711 18.6032 24.6246C18.6842 24.6783 18.725 24.7467 18.725 24.8297C18.725 24.9391 18.669 25.0257 18.5578 25.0896C18.4462 25.1533 18.2811 25.1854 18.0625 25.1854C17.9428 25.1854 17.8361 25.1771 17.7418 25.161C17.6477 25.1447 17.5615 25.1229 17.4836 25.0956C17.4056 25.0682 17.3358 25.0369 17.274 25.0014C17.2122 24.9659 17.155 24.928 17.1021 24.8875L16.8075 25.3646C16.9129 25.4436 17.0233 25.5075 17.1386 25.556C17.2541 25.6047 17.3675 25.6427 17.4789 25.67C17.5903 25.6973 17.6956 25.7155 17.795 25.7247C17.8942 25.7338 17.9814 25.7383 18.0563 25.7383C18.265 25.7383 18.4518 25.715 18.6171 25.6685C18.7819 25.6217 18.9208 25.5565 19.0333 25.4724C19.1456 25.3883 19.2318 25.2882 19.2915 25.1715C19.3512 25.0551 19.3812 24.927 19.3812 24.7871C19.3811 24.5381 19.2919 24.344 19.1136 24.2053ZM24.6253 22.7893C24.7946 22.8634 24.9394 22.9676 25.06 23.1023C25.1803 23.237 25.2746 23.3981 25.3426 23.5854C25.4106 23.7729 25.4445 23.9801 25.4445 24.2069C25.4445 24.2474 25.4434 24.2879 25.4413 24.3286C25.4395 24.369 25.4362 24.4075 25.4323 24.4439H23.2809C23.3012 24.5756 23.3388 24.6881 23.3934 24.7813C23.4481 24.8743 23.5138 24.951 23.5908 25.0107C23.6678 25.0704 23.7538 25.1145 23.8491 25.1428C23.9442 25.1712 24.0434 25.1853 24.1469 25.1853C24.2926 25.1853 24.4391 25.1585 24.586 25.1048C24.7328 25.0511 24.8671 24.9758 24.9886 24.8785L25.3045 25.3312C25.1263 25.4832 24.9374 25.5895 24.7379 25.6502C24.5383 25.711 24.3282 25.7414 24.1073 25.7414C23.8885 25.7414 23.6881 25.705 23.5057 25.632C23.3235 25.5592 23.1665 25.4557 23.0348 25.3219C22.9029 25.1883 22.8008 25.0272 22.7277 24.839C22.6548 24.6505 22.6183 24.4409 22.6183 24.2098C22.6183 23.983 22.6539 23.7754 22.7246 23.5869C22.7957 23.3985 22.8948 23.237 23.0225 23.1023C23.1501 22.9676 23.3025 22.8634 23.4798 22.7893C23.6571 22.7154 23.8531 22.6784 24.0677 22.6784C24.2702 22.6784 24.4563 22.7154 24.6253 22.7893ZM23.3688 23.6705C23.3283 23.7586 23.2999 23.8554 23.2838 23.9607H24.7938C24.7594 23.7338 24.6785 23.5577 24.5508 23.4321C24.4233 23.3064 24.2582 23.2436 24.0555 23.2436C23.9421 23.2436 23.8413 23.2608 23.7532 23.2952C23.6651 23.3297 23.5893 23.3788 23.5254 23.4426C23.4615 23.5064 23.4094 23.5824 23.3688 23.6705ZM33.4973 23.1069C33.3959 22.9772 33.2704 22.8734 33.1205 22.7954C32.9704 22.7175 32.7912 22.6784 32.5828 22.6784C32.378 22.6784 32.1875 22.7164 32.0114 22.7923C31.8352 22.8684 31.6812 22.9741 31.5495 23.1099C31.4179 23.2457 31.3146 23.4072 31.2396 23.5946C31.1644 23.7819 31.1271 23.9871 31.1271 24.2099C31.1271 24.4328 31.1644 24.6378 31.2396 24.8252C31.3146 25.0126 31.4179 25.1741 31.5495 25.3099C31.6812 25.4457 31.8352 25.5513 32.0114 25.6275C32.1876 25.7034 32.378 25.7413 32.5828 25.7413C32.7912 25.7413 32.9704 25.7028 33.1205 25.6258C33.2704 25.5489 33.3958 25.4456 33.4973 25.3159V25.6653H34.1323V22.7543H33.4973V23.1069ZM33.4731 24.5806C33.4304 24.6941 33.3707 24.7923 33.2937 24.8754C33.2167 24.9584 33.1245 25.0238 33.0172 25.0714C32.9097 25.119 32.7903 25.1428 32.6587 25.1428C32.5208 25.1428 32.3979 25.1181 32.2896 25.0683C32.1812 25.0188 32.0894 24.9519 32.0145 24.8677C31.9395 24.7837 31.8818 24.685 31.8413 24.5715C31.8007 24.458 31.7806 24.3376 31.7806 24.2099C31.7806 24.0824 31.8007 23.9618 31.8413 23.8483C31.8819 23.7349 31.9395 23.6362 32.0145 23.5522C32.0894 23.4681 32.1812 23.4013 32.2896 23.3516C32.3979 23.302 32.5208 23.2771 32.6587 23.2771C32.7903 23.2771 32.9098 23.3009 33.0172 23.3485C33.1245 23.3963 33.2167 23.4615 33.2937 23.5445C33.3707 23.6276 33.4305 23.7259 33.4731 23.8393C33.5156 23.9527 33.5368 24.0763 33.5368 24.21C33.5367 24.3436 33.5155 24.4671 33.4731 24.5806ZM27.5703 22.6784C27.3921 22.6784 27.2311 22.7108 27.0873 22.7756C26.9434 22.8405 26.823 22.9965 26.7257 23.1363V22.7544H26.149V25.6655H26.7317V24.0641C26.7317 23.9405 26.749 23.8301 26.7833 23.7328C26.8177 23.6356 26.8654 23.5537 26.9263 23.4866C26.9869 23.4198 27.0598 23.3693 27.1451 23.3349C27.23 23.3004 27.3232 23.2831 27.4246 23.2831C27.5016 23.2831 27.5846 23.2922 27.6736 23.3104C27.719 23.3197 27.7617 23.3312 27.8014 23.3448L27.9891 22.7371C27.9381 22.7211 27.8865 22.7073 27.8335 22.6982C27.7552 22.685 27.6676 22.6784 27.5703 22.6784ZM35.9154 22.7756C36.0594 22.7108 36.2203 22.6784 36.3988 22.6784C36.4958 22.6784 36.5834 22.685 36.6616 22.6982C36.7147 22.7073 36.7663 22.7211 36.8173 22.7371L36.6295 23.3448C36.5899 23.3312 36.5474 23.3197 36.502 23.3104C36.4128 23.2922 36.3298 23.2831 36.2528 23.2831C36.1513 23.2831 36.0581 23.3004 35.9733 23.3349C35.8882 23.3693 35.8151 23.4198 35.7545 23.4866C35.6936 23.5537 35.6461 23.6356 35.6117 23.7328C35.5772 23.8301 35.5599 23.9405 35.5599 24.0641V25.6655H34.9774V22.7544H35.5539V23.1363C35.6512 22.9965 35.7716 22.8405 35.9154 22.7756ZM29.3791 23.3453C29.2675 23.3909 29.1713 23.4548 29.0904 23.5368C29.0094 23.6189 28.9456 23.7171 28.8987 23.8316C28.8522 23.946 28.8289 24.0722 28.8289 24.2099C28.8289 24.3477 28.8522 24.4738 28.8987 24.5882C28.9455 24.7027 29.0094 24.8009 29.0904 24.8829C29.1713 24.9649 29.2675 25.0288 29.3791 25.0743C29.4905 25.1199 29.6111 25.1427 29.7406 25.1427C29.8831 25.1427 30.0157 25.1199 30.1384 25.0743C30.2569 25.0302 30.3595 24.9688 30.4467 24.8907L30.7522 25.3992C30.6378 25.4909 30.5085 25.5659 30.3651 25.6245C30.1734 25.7023 29.9654 25.7413 29.7406 25.7413C29.5156 25.7413 29.3076 25.7023 29.116 25.6245C28.9246 25.5463 28.7597 25.439 28.6209 25.3022C28.4821 25.1655 28.3732 25.0039 28.2942 24.8176C28.2151 24.6313 28.1756 24.4286 28.1756 24.2099C28.1756 23.9911 28.2151 23.7885 28.2942 23.6021C28.3733 23.4158 28.4821 23.2542 28.6209 23.1175C28.7597 22.9807 28.9246 22.8734 29.116 22.7954C29.3076 22.7175 29.5156 22.6784 29.7406 22.6784C29.9654 22.6784 30.1734 22.7175 30.3651 22.7954C30.5085 22.8539 30.6379 22.929 30.7522 23.0205L30.4467 23.529C30.3595 23.4509 30.2569 23.3894 30.1384 23.3453C30.0157 23.2998 29.8831 23.277 29.7406 23.277C29.6111 23.277 29.4905 23.2998 29.3791 23.3453Z" fill="white"/>
</svg>
