<svg width="48" height="48" viewBox="0 0 48 48" fill="none" xmlns="http://www.w3.org/2000/svg">
<rect width="48" height="48" rx="24" fill="#8064EE"/>
<g clip-path="url(#clip0)">
<path d="M16.8704 16.917C17.7959 15.9917 18.8738 15.2649 20.0747 14.7568C21.3191 14.2307 22.6396 13.9639 24 13.9639C25.3604 13.9639 26.6809 14.2307 27.9253 14.7568C29.1262 15.2649 30.2043 15.9917 31.1296 16.917C31.5295 17.3169 31.8923 17.7456 32.2163 18.2002V17.1189C32.2163 13.6516 29.3955 10.8308 25.9282 10.8308H18.1279V8.0625L8 14.4441L15.2588 19.0178C15.699 18.2527 16.2383 17.5491 16.8704 16.917V16.917Z" fill="white"/>
<path d="M40 33.6492L32.7412 29.0754C32.301 29.8406 31.7617 30.5439 31.1296 31.1763C30.2041 32.1016 29.1262 32.8284 27.9253 33.3362C26.6809 33.8625 25.3604 34.1294 24 34.1294C22.6396 34.1294 21.3191 33.8625 20.0747 33.3362C18.8738 32.8284 17.7957 32.1016 16.8704 31.1763C16.4705 30.7764 16.1077 30.3477 15.7837 29.8931V30.9744C15.7837 34.4416 18.6045 37.2624 22.0718 37.2624H29.8723V40.0308L40 33.6492Z" fill="white"/>
<path d="M15.7942 24.0466C15.7942 28.5786 19.468 32.2527 24 32.2527C28.5322 32.2527 32.2061 28.5786 32.2061 24.0466C32.2061 19.5146 28.5322 15.8406 24 15.8406C19.468 15.8406 15.7942 19.5146 15.7942 24.0466ZM20.8757 22.7129C20.8757 21.5535 21.717 20.5786 23.3999 20.3428V19.2244H24.8464V20.3223C25.6057 20.394 26.3445 20.5889 26.9292 20.9172L26.2007 22.6716C25.4929 22.3125 24.8259 22.1382 24.2 22.1382C23.4922 22.1382 23.2664 22.3433 23.2664 22.5896C23.2664 23.4514 27.2371 22.7332 27.2371 25.3804C27.2371 26.4885 26.4368 27.4529 24.8464 27.73V28.8689H23.3999V27.7812C22.3738 27.7197 21.3787 27.4426 20.7629 27.063L21.5427 25.2983C22.22 25.6985 23.1228 25.9551 23.9128 25.9551C24.6001 25.9551 24.8464 25.8113 24.8464 25.5652C24.8464 24.6621 20.8757 25.3906 20.8757 22.7129V22.7129Z" fill="white"/>
</g>
<defs>
<clipPath id="clip0">
<rect width="32" height="32" fill="white" transform="translate(8 8)"/>
</clipPath>
</defs>
</svg>
