<svg width="48" height="48" viewBox="0 0 48 48" fill="none" xmlns="http://www.w3.org/2000/svg">
<rect width="48" height="48" rx="24" fill="#082069"/>
<path opacity="0.68" d="M35.1995 16.6221C35.5655 14.2882 35.197 12.7004 33.9347 11.2618C32.545 9.67836 30.0345 9 26.8223 9H17.4983C16.8419 9 16.2827 9.4776 16.1806 10.1263L12.2978 34.7465C12.2214 35.2324 12.597 35.6715 13.0883 35.6715H18.8446L18.4473 38.1909C18.3804 38.6159 18.7086 39 19.1388 39H23.9909C24.5651 39 25.054 38.5823 25.1435 38.0149L25.1912 37.768L26.1052 31.972L26.1641 31.6517C26.2537 31.0846 26.7426 30.6663 27.3167 30.6663H28.0425C32.743 30.6663 36.4236 28.7568 37.4989 23.2339C37.9484 20.9263 37.7158 19 36.5275 17.6457C36.1684 17.2369 35.7211 16.8983 35.1995 16.6221Z" fill="white"/>
<path opacity="0.7" d="M35.1995 16.6221C35.5655 14.2882 35.197 12.7004 33.9347 11.2618C32.545 9.67836 30.0345 9 26.8223 9H17.4983C16.8419 9 16.2827 9.4776 16.1806 10.1263L12.2978 34.7465C12.2214 35.2324 12.597 35.6715 13.0883 35.6715H18.8446L20.2905 26.5023L20.2456 26.7898C20.348 26.1414 20.902 25.6635 21.5586 25.6635H24.2947C29.6678 25.6635 33.8751 23.4805 35.1041 17.1675C35.1408 16.9811 35.1717 16.7999 35.1995 16.6221Z" fill="white"/>
<path d="M21.844 16.6529C21.9055 16.263 22.156 15.9434 22.4931 15.7821C22.6461 15.7087 22.8176 15.6678 22.9969 15.6678H30.3058C31.1718 15.6678 31.9791 15.7246 32.717 15.8435C32.9279 15.8774 33.1332 15.9165 33.3328 15.9608C33.532 16.0051 33.7257 16.0543 33.913 16.1093C34.0068 16.1365 34.0988 16.1656 34.1896 16.1955C34.552 16.3159 34.8896 16.4577 35.2001 16.6224C35.5661 14.2885 35.1976 12.7007 33.9353 11.2621C32.545 9.67836 30.0345 9 26.8223 9H17.4983C16.8419 9 16.2827 9.4776 16.1806 10.1263L12.2978 34.7465C12.2214 35.2324 12.597 35.6715 13.0883 35.6715H18.8446L20.2905 26.5023L21.844 16.6529Z" fill="white"/>
</svg>
