<svg width="48" height="48" viewBox="0 0 48 48" fill="none" xmlns="http://www.w3.org/2000/svg">
<rect width="48" height="48" rx="24" fill="#26C653"/>
<path d="M13.695 37.355C14.4186 37.7019 15.2 37.9121 16 37.975V36.975C15.3769 36.9161 14.7683 36.7521 14.2 36.49L13.695 37.355Z" fill="white"/>
<path d="M21 31.5C21 30.61 20.7361 29.74 20.2416 28.9999C19.7471 28.2599 19.0443 27.6831 18.2221 27.3425C17.3998 27.002 16.495 26.9128 15.6221 27.0865C14.7492 27.2601 13.9474 27.6887 13.318 28.318C12.6887 28.9474 12.2601 29.7492 12.0865 30.6221C11.9128 31.495 12.0019 32.3998 12.3425 33.2221C12.6831 34.0443 13.2599 34.7471 13.9999 35.2416C14.74 35.7361 15.61 36 16.5 36C17.6929 35.9982 18.8364 35.5235 19.6799 34.6799C20.5235 33.8364 20.9982 32.6929 21 31.5V31.5ZM18 30H16V31H17C17.2652 31 17.5196 31.1054 17.7071 31.2929C17.8946 31.4804 18 31.7348 18 32V33C18 33.2652 17.8946 33.5196 17.7071 33.7071C17.5196 33.8946 17.2652 34 17 34V35H16V34H15V33H17V32H16C15.7348 32 15.4804 31.8946 15.2929 31.7071C15.1054 31.5196 15 31.2652 15 31V30C15 29.7348 15.1054 29.4804 15.2929 29.2929C15.4804 29.1054 15.7348 29 16 29V28H17V29H18V30Z" fill="white"/>
<path d="M12.01 34.67L11.14 35.17C11.5962 35.8312 12.1688 36.4039 12.83 36.86L13.33 35.99C12.8205 35.6255 12.3745 35.1796 12.01 34.67V34.67Z" fill="white"/>
<path d="M17 36.975V37.975C17.8 37.9121 18.5814 37.7019 19.305 37.355L18.8 36.49C18.2317 36.7521 17.6231 36.9161 17 36.975V36.975Z" fill="white"/>
<path d="M19.305 25.645C18.5814 25.2981 17.8 25.0879 17 25.025V26.025C17.6231 26.0839 18.2317 26.2479 18.8 26.51L19.305 25.645Z" fill="white"/>
<path d="M19.67 35.99L20.17 36.86C20.8312 36.4039 21.4038 35.8312 21.86 35.17L20.99 34.67C20.6255 35.1796 20.1795 35.6255 19.67 35.99Z" fill="white"/>
<path d="M16 26.025V25.025C15.2 25.0879 14.4186 25.2981 13.695 25.645L14.2 26.51C14.7683 26.2479 15.3769 26.0839 16 26.025V26.025Z" fill="white"/>
<path d="M13.33 27.01L12.83 26.14C12.1688 26.5962 11.5962 27.1688 11.14 27.83L12.01 28.33C12.3745 27.8205 12.8205 27.3745 13.33 27.01V27.01Z" fill="white"/>
<path d="M21.49 33.8L22.355 34.305C22.7019 33.5814 22.9121 32.8 22.975 32H21.975C21.9161 32.6231 21.7521 33.2317 21.49 33.8V33.8Z" fill="white"/>
<path d="M11.025 32H10.025C10.0879 32.8 10.2981 33.5814 10.645 34.305L11.51 33.8C11.2479 33.2317 11.0839 32.6231 11.025 32V32Z" fill="white"/>
<path d="M11.51 29.1999L10.645 28.6949C10.2981 29.4185 10.0879 30.2 10.025 30.9999H11.025C11.0839 30.3769 11.2479 29.7683 11.51 29.1999V29.1999Z" fill="white"/>
<path d="M35.32 10.56C35.4137 10.6544 35.4662 10.782 35.4662 10.915C35.4662 11.048 35.4137 11.1756 35.32 11.27L23.245 23.34L24.66 24.755L36.73 12.68C36.8244 12.5863 36.952 12.5338 37.085 12.5338C37.218 12.5338 37.3456 12.5863 37.44 12.68L38 13.245V10H34.755L35.32 10.56Z" fill="white"/>
<path d="M35.32 27.06C35.4137 27.1544 35.4663 27.282 35.4663 27.415C35.4663 27.548 35.4137 27.6756 35.32 27.77L27.245 35.84L28.66 37.255L36.73 29.18C36.8244 29.0863 36.952 29.0338 37.085 29.0338C37.218 29.0338 37.3456 29.0863 37.44 29.18L38 29.745V26.5H34.755L35.32 27.06Z" fill="white"/>
<path d="M21.975 30.9999H22.975C22.9121 30.2 22.7019 29.4185 22.355 28.6949L21.49 29.1999C21.7521 29.7683 21.9161 30.3769 21.975 30.9999V30.9999Z" fill="white"/>
<path d="M20.73 12.68C20.8244 12.5863 20.952 12.5338 21.085 12.5338C21.218 12.5338 21.3456 12.5863 21.44 12.68L22 13.245V10H18.755L19.32 10.56C19.4137 10.6544 19.4663 10.782 19.4663 10.915C19.4663 11.048 19.4137 11.1756 19.32 11.27L11.245 19.34L12.66 20.755L20.73 12.68Z" fill="white"/>
<path d="M20.17 26.14L19.67 27.01C20.1795 27.3745 20.6255 27.8205 20.99 28.33L21.86 27.83C21.4038 27.1688 20.8312 26.5962 20.17 26.14V26.14Z" fill="white"/>
<path d="M15.6443 22.1458L19.6438 18.1462L20.3508 18.8533L16.3513 22.8528L15.6443 22.1458Z" fill="white"/>
<path d="M20.6442 17.1469L21.644 16.147L22.3511 16.8541L21.3513 17.854L20.6442 17.1469Z" fill="white"/>
<path d="M25.1423 31.6458L29.1418 27.6463L29.8488 28.3533L25.8493 32.3527L25.1423 31.6458Z" fill="white"/>
<path d="M30.1422 26.6469L31.142 25.647L31.8491 26.3541L30.8493 27.354L30.1422 26.6469Z" fill="white"/>
<path d="M21.6438 19.6467L25.6433 15.6472L26.3503 16.3542L22.3508 20.3537L21.6438 19.6467Z" fill="white"/>
<path d="M26.6437 14.6478L27.6435 13.648L28.3506 14.3551L27.3508 15.3549L26.6437 14.6478Z" fill="white"/>
<path d="M27.6428 25.6467L31.6423 21.6472L32.3493 22.3542L28.3498 26.3537L27.6428 25.6467Z" fill="white"/>
<path d="M32.6427 20.6478L33.6425 19.648L34.3496 20.3551L33.3498 21.3549L32.6427 20.6478Z" fill="white"/>
</svg>
