<svg width="48" height="48" viewBox="0 0 48 48" fill="none" xmlns="http://www.w3.org/2000/svg">
<rect width="48" height="48" rx="24" fill="#FF8C00"/>
<mask id="mask0" mask-type="alpha" maskUnits="userSpaceOnUse" x="0" y="0" width="48" height="48">
<rect width="48" height="48" rx="24" fill="#FF8C00"/>
</mask>
<g mask="url(#mask0)">
<path d="M35.0604 29.4832C35.6599 29.7138 35.8905 30.6119 35.9363 31.0036C36.0287 31.7183 35.8217 31.9947 35.5911 31.9947C35.3605 31.9947 35.0375 31.7183 34.6923 31.1654C34.3464 30.6119 34.2082 29.9902 34.393 29.6673C34.5076 29.4596 34.7604 29.3679 35.0604 29.4832ZM31.5585 32.0871C31.9273 32.0871 32.3419 32.2483 32.7108 32.5705C33.4248 33.17 33.6324 33.861 33.2636 34.3681C33.0559 34.6216 32.7108 34.7827 32.319 34.7827C31.9273 34.7827 31.5126 34.6445 31.2362 34.391C30.5909 33.8381 30.4069 32.9157 30.8208 32.4094C30.9827 32.2017 31.2362 32.0871 31.5585 32.0871ZM23.4946 38.7459C14.7382 38.7459 7.64185 31.6488 7.64185 22.8932C7.64185 14.1375 14.7389 7.04114 23.4939 7.04114C32.2496 7.04114 39.3466 14.1382 39.3466 22.8932C39.3466 25.8652 38.5173 28.6539 37.1122 31.0272C37.0657 31.096 36.9504 31.0731 36.9275 30.9807C36.3746 27.087 34.0013 24.9435 30.5451 24.299C30.245 24.2524 30.1992 24.0684 30.5909 24.0225C31.6508 23.9302 33.1483 23.9531 33.9318 24.0913C33.9776 23.6996 34.0013 23.2849 34.0013 22.8702C34.0013 17.0866 29.3004 12.3858 23.5168 12.3858C17.7339 12.3858 13.033 17.0866 13.033 22.8702C13.033 28.6539 17.7339 33.3547 23.5175 33.3547H24.0009C23.8367 32.4192 23.7671 31.4696 23.7932 30.5202C23.8169 29.8749 23.9551 29.7826 24.2315 30.2896C25.6832 32.8011 27.7571 35.0592 31.812 35.9579C35.1299 36.6956 38.4478 37.5478 42.0193 42.0868C42.3416 42.4785 41.8582 42.8931 41.4893 42.5709C37.8491 39.3446 34.5312 38.2847 31.5126 38.2847C28.1252 38.3083 25.8221 38.7459 23.4946 38.7459Z" fill="white"/>
</g>
</svg>
