<svg width="48" height="48" viewBox="0 0 48 48" fill="none" xmlns="http://www.w3.org/2000/svg">
<rect width="48" height="48" rx="24" fill="#299D37"/>
<path fill-rule="evenodd" clip-rule="evenodd" d="M40 24.0177C39.8824 32.7704 32.7535 39.8041 24 39.8041C15.2465 39.8041 8.11758 32.7704 8 24.0177C8 23.6639 8.01444 23.3102 8.03609 22.9637L17.7234 28.4715L38.2386 16.8063C39.3994 19.0326 40.0037 21.5069 40 24.0177ZM17.7234 24.458L8.70742 19.3328C8.52583 19.9028 8.38116 20.4839 8.27431 21.0725L17.7234 26.4431L37.358 15.2832C37.0359 14.7992 36.6864 14.3341 36.3113 13.89L17.7234 24.458ZM35.0986 12.5906C34.6512 12.1685 34.1813 11.7709 33.6909 11.3996L17.7234 20.4805L10.1006 16.1422C9.81212 16.6422 9.55185 17.1579 9.321 17.687L17.7234 22.4657L35.0986 12.5906ZM17.7234 18.5893L32.074 10.4323C31.4722 10.0827 30.8476 9.774 30.2044 9.5083L17.7234 16.597L12.1651 13.4424C11.7689 13.8726 11.3955 14.3232 11.0462 14.7923L17.7234 18.5893Z" fill="white"/>
</svg>
