<svg width="48" height="48" viewBox="0 0 48 48" fill="none" xmlns="http://www.w3.org/2000/svg">
<rect width="48" height="48" rx="24" fill="#1A1F71"/>
<path d="M23.3975 18.7038L21.1259 29.3233H18.3784L20.65 18.7038H23.3975ZM34.9555 25.5609L36.4022 21.5729L37.2332 25.5609H34.9555ZM38.0223 29.3233H40.5625L38.3432 18.7038H35.9995C35.4708 18.7038 35.0267 19.0105 34.8295 19.4823L30.707 29.3233H33.5921L34.1644 27.737H37.6893L38.0223 29.3233ZM30.8503 25.8561C30.8618 23.0539 26.9756 22.8984 27.001 21.6463C27.0103 21.2657 27.3729 20.8604 28.1666 20.7568C28.5597 20.706 29.6458 20.6654 30.8761 21.2323L31.3574 18.9791C30.6963 18.7401 29.8458 18.5099 28.7877 18.5099C26.0716 18.5099 24.161 19.9525 24.1458 22.0199C24.128 23.5491 25.5105 24.4014 26.5501 24.9107C27.621 25.4308 27.9801 25.7651 27.9751 26.2299C27.9675 26.9424 27.12 27.2579 26.3319 27.2696C24.9501 27.2915 24.1491 26.8962 23.5102 26.5985L23.0115 28.9264C23.6543 29.221 24.839 29.477 26.066 29.49C28.9533 29.49 30.8418 28.0639 30.8503 25.8561ZM19.4714 18.7038L15.0202 29.3233H12.1159L9.92525 20.848C9.7926 20.3272 9.67711 20.1355 9.27289 19.9154C8.61228 19.5565 7.52139 19.2209 6.5625 19.0121L6.62719 18.7038H11.3027C11.8977 18.7038 12.4335 19.1 12.5696 19.786L13.7272 25.9316L16.5847 18.7038H19.4714Z" fill="white"/>
</svg>
