<svg width="48" height="48" viewBox="0 0 48 48" fill="none" xmlns="http://www.w3.org/2000/svg">
<rect width="48" height="48" rx="24" fill="#036CB5"/>
<path d="M24.1672 8.24341C26.6638 8.24341 29.0391 8.81537 31.1705 9.83853C31.5048 9.98935 31.8413 10.1698 32.1744 10.3505L30.713 11.6451L28.522 9.38751L24.7466 12.6982L22.5234 10.32L15.5811 16.4908L20.0258 21.3369L18.2906 22.8415L22.6758 27.6877L20.9405 29.1917L27.2132 36.0848L30.9257 32.7134L34.1547 36.3264C33.5148 36.808 32.8144 37.2906 32.0541 37.7113C29.7397 39.0054 27.0598 39.7565 24.198 39.7565C15.3977 39.7565 8.24351 32.6845 8.24351 23.9864C8.21243 15.3471 15.3679 8.24341 24.1672 8.24341ZM21.2438 23.0226L25.0499 19.6512L28.4608 23.4136L24.6539 26.7846L21.2438 23.0226ZM23.9544 29.5243L27.7296 26.1231L31.1705 29.8852L27.3641 33.2567L23.9544 29.5243ZM18.5355 16.6116L22.3405 13.2402L25.7506 17.0026L21.9443 20.3738L18.5355 16.6116ZM25.5067 14.805L28.3386 12.2768L30.8968 15.0762L28.0649 17.6343L25.5067 14.805ZM30.5617 26.3935L33.3927 23.865L35.9508 26.6937L33.1187 29.2236L30.5617 26.3935ZM33.058 32.0829L35.8901 29.554L38.4462 32.3533L35.6152 34.911L33.058 32.0829ZM34.2153 19.0792L36.1028 17.3934L37.8073 19.2603L35.9201 20.9455L34.2153 19.0792ZM31.7794 13.5108L33.6671 11.7954L35.3728 13.6914L33.4837 15.377L31.7794 13.5108ZM36.6204 24.6482L38.5079 22.9625L40.2434 24.8288L38.3259 26.5139L36.6204 24.6482ZM28.1256 20.4641L30.9577 17.9357L33.5147 20.7345L30.6839 23.2634L28.1256 20.4641Z" fill="white"/>
</svg>
