<svg width="48" height="48" viewBox="0 0 48 48" fill="none" xmlns="http://www.w3.org/2000/svg">
<rect width="48" height="48" rx="24" fill="#F7C700"/>
<path d="M31.7894 18.6734V29.2913L15.43 34.6137L28.3668 25.7994V6.375C28.3668 6.375 19.1103 13.7433 16.2222 15.8969C12.7341 18.5042 12.5919 19.5733 12.5919 21.2577V34.1753C12.5919 34.756 12.8264 35.3174 13.2379 35.7289C13.6494 36.1404 14.207 36.375 14.7916 36.375H35.4082V18.6734H31.7894ZM22.456 18.3081C23.2136 17.4082 24.3173 17.0852 24.9249 17.5966C25.5325 18.1043 25.4094 19.2503 24.6519 20.1502C23.8943 21.05 22.7906 21.3692 22.1829 20.8616C21.5792 20.3501 21.6984 19.208 22.456 18.3081Z" fill="white"/>
</svg>
